#!OML:ASF X:\für Bonn\!DataBase\2005_08_10_Bjorn_Final\c3d\bjorn.ASF
:FULLY-SPECIFIED
:DEGREES
33
root 0.868217 17.2788 2.40971 -176.629 1.34972 -176.52
lowerback 4.03926 1.11213 4.65185
upperback 6.29035 2.05518 0.850518
thorax 4.36926 1.43831 -1.7042
lowerneck -12.1141 -3.43905 -0.617505
upperneck 0.456134 -4.69453 -0.180575
head 2.23816 -2.43736 -0.217421
rclavicle -1.2275e-014 1.05356e-014
rhumerus 70.1063 1.38195 -83.6186
rradius 9.31066
rwrist 51.4814
rhand -13.0526 9.15236
rfingers 7.12502
rthumb 13.0425 -20.4199
lclavicle -1.2275e-014 1.05356e-014
lhumerus 73.5706 -17.2304 70.1245
lradius 9.31354
lwrist -43.1816
lhand -18.4716 -6.13377
lfingers 7.12502
lthumb 7.8152 23.7018
rfemur -31.7963 -10.341 21.3627
rtibia 64.7993
rfoot -32.6295 11.9279
rtoes -23.8248
lfemur -32.3819 1.39352 -13.0332
ltibia 69.372
lfoot -28.0858 3.60645
ltoes -23.8717
34
root 0.868634 17.1259 2.45187 -176.593 1.2918 -176.614
lowerback 4.62706 1.03741 4.51155
upperback 6.40121 2.01605 0.852998
thorax 4.14571 1.42411 -1.63946
lowerneck -12.3767 -3.42809 -0.550093
upperneck -0.0443593 -4.72863 -0.211097
head 2.11483 -2.47251 -0.239341
rclavicle -2.22639e-014 -1.37161e-014
rhumerus 70.4511 1.42653 -83.2217
rradius 9.05602
rwrist 51.435
rhand -13.1374 9.15353
rfingers 7.12502
rthumb 12.9608 -20.4239
lclavicle -2.22639e-014 -1.37161e-014
lhumerus 73.7681 -17.1828 70.0657
lradius 9.14089
lwrist -43.3805
lhand -18.9343 -6.07725
lfingers 7.12502
lthumb 7.36856 23.7744
rfemur -33.3503 -10.5553 21.2575
rtibia 67.2235
rfoot -32.7007 12.326
rtoes -23.2597
lfemur -34.0838 1.63888 -13.1258
ltibia 72.0191
lfoot -27.9583 3.39993
ltoes -24.3064
35
root 0.868502 16.973 2.49477 -176.55 1.23619 -176.747
lowerback 5.19677 0.967727 4.37006
upperback 6.53769 1.98457 0.816071
thorax 3.96239 1.41723 -1.61293
lowerneck -12.601 -3.40571 -0.410421
upperneck -0.621327 -4.76525 -0.288993
head 1.95602 -2.5137 -0.286453
rclavicle -2.5196e-014 -1.68967e-014
rhumerus 70.8056 1.43401 -82.8575
rradius 8.8783
rwrist 51.424
rhand -13.1674 9.10446
rfingers 7.12502
rthumb 12.9318 -20.4748
lclavicle -2.5196e-014 -1.68967e-014
lhumerus 74.03 -17.1487 69.956
lradius 8.95048
lwrist -43.5454
lhand -19.3717 -6.05576
lfingers 7.12502
lthumb 6.94633 23.8103
rfemur -34.9296 -10.7512 21.0977
rtibia 69.6743
rfoot -32.7266 12.6614
rtoes -23.1824
lfemur -35.8471 1.92618 -13.2666
ltibia 74.6818
lfoot -27.7518 3.28326
ltoes -25.2673
36
root 0.866612 16.818 2.53901 -176.526 1.15018 -176.861
lowerback 5.80594 0.874706 4.26319
upperback 6.68854 1.92822 0.792179
thorax 3.77251 1.40162 -1.59204
lowerneck -12.8485 -3.37762 -0.302171
upperneck -1.15294 -4.79287 -0.363111
head 1.81787 -2.55149 -0.327442
rclavicle 8.64713e-015 9.93923e-016
rhumerus 71.1332 1.4656 -82.4818
rradius 8.80259
rwrist 51.3483
rhand -13.2347 9.04482
rfingers 7.12502
rthumb 12.8669 -20.5386
lclavicle 8.64713e-015 9.93923e-016
lhumerus 74.2806 -17.1074 69.8667
lradius 8.81884
lwrist -43.7136
lhand -19.7033 -6.00614
lfingers 7.12502
lthumb 6.62623 23.8702
rfemur -36.4902 -10.9813 20.9377
rtibia 72.1281
rfoot -32.7781 12.9596
rtoes -23.564
lfemur -37.6166 2.21417 -13.383
ltibia 77.3321
lfoot -27.4003 3.12613
ltoes -26.5737
37
root 0.863617 16.654 2.58356 -176.482 1.08201 -176.972
lowerback 6.40187 0.788835 4.16011
upperback 6.83874 1.88064 0.787788
thorax 3.59055 1.39079 -1.55207
lowerneck -13.0521 -3.35743 -0.302407
upperneck -1.73684 -4.82428 -0.379833
head 1.65885 -2.59213 -0.330036
rclavicle 1.35174e-014 8.74653e-015
rhumerus 71.3726 1.48755 -82.052
rradius 8.91823
rwrist 51.2607
rhand -13.2203 9.04553
rfingers 7.12502
rthumb 12.8809 -20.537
lclavicle 1.35174e-014 8.74653e-015
lhumerus 74.4931 -17.0527 69.8196
lradius 8.77931
lwrist -43.8488
lhand -19.8797 -5.93623
lfingers 7.12502
lthumb 6.45591 23.9454
rfemur -38.1015 -11.197 20.7634
rtibia 74.6196
rfoot -32.7811 13.3159
rtoes -23.9535
lfemur -39.452 2.52342 -13.5002
ltibia 79.9828
lfoot -27.0201 3.03138
ltoes -28.1806
